<?xml version="1.0" encoding="UTF-8" standalone="no"?>
<svg
   xmlns:dc="http://purl.org/dc/elements/1.1/"
   xmlns:cc="http://creativecommons.org/ns#"
   xmlns:rdf="http://www.w3.org/1999/02/22-rdf-syntax-ns#"
   xmlns:svg="http://www.w3.org/2000/svg"
   xmlns="http://www.w3.org/2000/svg"
   width="24"
   height="24"
   viewBox="0 0 24 24"
   version="1.1"
   id="svg8">
  <defs
     id="defs2">
    <rect
       x="-1.1008456"
       y="289.81766"
       width="7.9207187"
       height="7.0346723"
       id="rect2504" />
  </defs>
  <metadata
     id="metadata5">
    <rdf:RDF>
      <cc:Work
         rdf:about="">
        <dc:format>image/svg+xml</dc:format>
        <dc:type
           rdf:resource="http://purl.org/dc/dcmitype/StillImage" />
      </cc:Work>
    </rdf:RDF>
  </metadata>
  <g
     id="g5643"
     style="display:inline">
    <path
       id="rect5567"
       style="color:#000000;font-style:normal;font-variant:normal;font-weight:normal;font-stretch:normal;font-size:medium;line-height:normal;font-family:sans-serif;font-variant-ligatures:normal;font-variant-position:normal;font-variant-caps:normal;font-variant-numeric:normal;font-variant-alternates:normal;font-variant-east-asian:normal;font-feature-settings:normal;font-variation-settings:normal;text-indent:0;text-align:start;text-decoration:none;text-decoration-line:none;text-decoration-style:solid;text-decoration-color:#000000;letter-spacing:normal;word-spacing:normal;text-transform:none;writing-mode:lr-tb;direction:ltr;text-orientation:mixed;dominant-baseline:auto;baseline-shift:baseline;text-anchor:start;white-space:normal;shape-padding:0;shape-margin:0;inline-size:0;clip-rule:nonzero;display:inline;overflow:visible;visibility:visible;opacity:1;isolation:auto;mix-blend-mode:normal;color-interpolation:sRGB;color-interpolation-filters:linearRGB;solid-color:#000000;solid-opacity:1;vector-effect:none;fill:#000000;fill-opacity:1;fill-rule:nonzero;stroke:none;stroke-linecap:square;stroke-linejoin:miter;stroke-miterlimit:4;stroke-dasharray:none;stroke-dashoffset:0;stroke-opacity:1;paint-order:fill markers stroke;color-rendering:auto;image-rendering:auto;shape-rendering:auto;text-rendering:auto;enable-background:accumulate;stop-color:#000000;stop-opacity:1"
       d="M 7.458984,1.451172 C 5.987697,2.921942 4.516265,4.392567 3.044922,5.863281 V 22.548828 H 20.955078 V 1.451172 Z M 7.306641,3.017578 V 5.570312 H 4.751953 Z m 6.894531,0.564453 c 1.186223,0.04903 2.356678,0.475958 3.21289,1.31836 1.307162,1.214873 1.760742,3.222983 1.128907,4.886718 -0.619417,1.744357 -2.368973,3.00868 -4.222657,3.03125 -1.818254,0.07129 -3.600331,-1.056146 -4.332031,-2.71875 C 9.216505,8.446402 9.560795,6.348436 10.845703,5.044922 11.70524,4.118024 12.951895,3.629269 14.201172,3.582031 Z m 0.501953,1.154297 v 2.964844 h 2.962891 C 17.473828,6.201026 16.203158,4.929502 14.703125,4.736328 Z m 0,3.964844 v 2.96289 c 1.500145,-0.192188 2.77167,-1.462857 2.964844,-2.96289 z m -8.603516,5.53125 h 7.074219 v 1 H 6.099609 Z m 0,2.46875 h 12.048829 v 1 H 6.099609 Z m 0,2.466797 h 9.994141 v 1 H 6.099609 Z" />
  </g>
</svg>
